<?xml version="1.0" encoding="utf-8"?>
<!-- Generator: Adobe Illustrator 22.1.0, SVG Export Plug-In . SVG Version: 6.00 Build 0)  -->
<svg version="1.1" id="Calque_1" xmlns="http://www.w3.org/2000/svg" xmlns:xlink="http://www.w3.org/1999/xlink" x="0px" y="0px"
	 viewBox="0 0 512 512" style="enable-background:new 0 0 512 512;" xml:space="preserve">
<path d="M57.2,165.2c-9.7,1.8-18.4,0.4-26-5.7c-5.7-4.6-9.1-10.5-10.6-17.6c-2.7-13.5,4.9-27.5,17.7-32.7
	c13.3-5.4,28.5-0.7,36.2,11.3c2.3,3.6,4.1,7.4,4.2,11.6c0.1,4,0,8-0.6,12c-0.7,4.2-2.8,7.9-5.6,11c-2.7,2.9-5.9,5.4-8.8,8.1
	c1,4.3,96.3,207.9,98.5,210.4c0.1-0.1,0.3-0.1,0.4-0.2c0.1-0.1,0.2-0.2,0.2-0.4c0.1-0.6,0.2-1.2,0.1-1.8
	c-5.2-93.7-10.5-187.4-15.7-281.5c-1.7-0.3-3.1-0.7-4.6-0.8c-15.7-1.8-26.8-15.4-25.8-31.6c0.9-14.7,13.9-26.9,28.9-27
	c14.1-0.1,26.3,9.3,29.4,22.8c3.1,13.9-3.8,27.6-16.9,33.6c-1.3,0.6-2.6,1.2-4.3,2c21.8,92.4,43.6,184.6,65.3,276.8
	c0.4,0,0.8,0,1.2,0c0.3-1.5,0.8-3,0.9-4.5c1.6-15.9,3.1-31.7,4.8-47.6c1.9-18.7,4-37.3,5.9-56c1.6-15.9,3.2-31.7,4.8-47.6
	c1.3-12.9,2.8-25.8,4.1-38.7c1.3-13,2.6-26.1,3.9-39.1c1.3-12.7,2.7-25.5,4-38.2c1-9.8,2-19.6,3-29.3c0.1-1.4,0-2.9,0-4.7
	c-9.8-2.1-17.5-7-22.2-15.9c-3.4-6.3-3.9-13.2-2.6-20c2.7-13.4,15.3-23.3,29.2-23.1c14.3,0.2,26.1,10.3,28.7,24.7
	c1.5,8.2-0.5,15.7-5.4,22.4c-4.8,6.5-11.5,10.2-19.9,11.9c10.3,101.6,21,202.9,31.3,304.2c0.1,0.6,0.6,1.2,1.4,1.9
	c22.3-92.3,44-184.6,65.8-277.2c-1.7-0.8-3-1.5-4.3-2.1c-13.3-6.2-20.1-20.5-16.3-34.6c3.7-13.9,16.9-23,31.5-21.7
	c14.6,1.4,25.9,13.9,26.4,28.5c0.6,15.4-11.5,28.8-26.1,30.1c-1.3,0.1-2.6,0.4-4.4,0.7c-0.3,3.9-0.7,7.8-0.9,11.6
	c-1.2,20.4-2.3,40.8-3.4,61.2c-0.7,13.5-1.4,27.1-2.1,40.6c-1,18.3-2.1,36.6-3.2,54.9c-0.7,12.8-1.4,25.6-2.1,38.4
	c-0.8,13.7-1.6,27.4-2.3,41.1c-0.6,11.3-1.3,22.6-1.9,33.9c0,0.8,0.2,1.6,0.4,2.7c0.7-0.5,1.3-0.6,1.4-0.9
	c32.6-69.7,65.2-139.5,98-209.5c-1.6-1.1-2.9-2-4.2-2.9c-10-7.4-14.5-17.3-12.2-29.6c2.3-12.4,9.9-20.4,22-23.2
	c11.8-2.8,22.3,0.5,30,10.2c7.5,9.5,8.8,20.2,3.5,31.1c-5.3,10.8-14.3,16.4-26.5,16.7c-2.1,0-4.1,0-6.8,0c-0.4,1.1-1.1,2.5-1.5,4
	c-10,33.8-20,67.7-29.9,101.5c-17.9,61-35.9,122-53.8,183c-3.4,11.4-10.1,20.5-19,28.1c-11.7,10-25.4,16.7-40,21.3
	c-21.5,6.8-43.6,9.2-66.2,7.8c-17.1-1.1-33.7-4.2-49.7-10.2c-11.1-4.2-21.5-9.6-30.7-17.1c-10.8-8.6-18.1-19.3-22-32.8
	c-27.4-93.6-55-187.1-82.5-280.7C58.6,169,57.9,167.2,57.2,165.2z M255.2,490.4c3.9,0,7.7,0,11.6,0c13.7-0.2,27.3-1.9,40.8-4.6
	c9.8-2,19.5-4.6,28.3-9.3c3.6-1.9,7.2-4.4,10.1-7.2c5.6-5.5,5.5-11.8-0.1-17.3c-2.7-2.7-6-5-9.4-6.7c-5.2-2.5-10.6-4.7-16.2-6.4
	c-14.4-4.4-29.3-6.4-44.4-7.5c-25.3-1.7-50.4-0.8-75.1,4.8c-7.8,1.8-15.4,4.5-22.9,7.3c-3.6,1.3-6.9,3.5-10,5.8
	c-9.3,7-9.3,15.3-0.2,22.4c2.4,1.9,5.1,3.6,8,4.9c4.6,2.1,9.3,4,14.1,5.5C211.1,488.8,233.1,490.5,255.2,490.4z"/>
</svg>
