<?xml version="1.0" encoding="utf-8"?>
<!-- Generator: Adobe Illustrator 22.1.0, SVG Export Plug-In . SVG Version: 6.00 Build 0)  -->
<svg version="1.1" id="Calque_1" xmlns="http://www.w3.org/2000/svg" xmlns:xlink="http://www.w3.org/1999/xlink" x="0px" y="0px"
	 viewBox="0 0 512 512" style="enable-background:new 0 0 512 512;" xml:space="preserve">
<style type="text/css">
	.st0{fill:none;stroke:#000000;stroke-width:10;stroke-linecap:round;stroke-miterlimit:10;}
	.st1{fill:#FFFFFF;}
</style>
<g>
	<path class="st1" d="M256,463.5c-114.4163,0-207.5-93.0846-207.5-207.5c0-114.4163,93.0837-207.5,207.5-207.5
		c114.4154,0,207.5,93.0837,207.5,207.5C463.5,370.4154,370.4154,463.5,256,463.5z M256,67.5367
		C152.0808,67.5367,67.5367,152.0808,67.5367,256S152.0808,444.4633,256,444.4633S444.4633,359.9192,444.4633,256
		S359.9192,67.5367,256,67.5367z"/>
	<path class="st1" d="M256,435.8968c-99.1953,0-179.8968-80.7015-179.8968-179.8968S156.8047,76.1032,256,76.1032
		S435.8968,156.8047,435.8968,256S355.1953,435.8968,256,435.8968z M256,95.1399c-88.6982,0-160.8601,72.1619-160.8601,160.8601
		c0,88.6991,72.1619,160.8601,160.8601,160.8601c88.6991,0,160.8601-72.161,160.8601-160.8601
		C416.8601,167.3018,344.6991,95.1399,256,95.1399z"/>
	<path class="st1" d="M256,407.3417c-5.2565,0-9.5183-4.261-9.5183-9.5183c0-5.2574,4.2619-9.5183,9.5183-9.5183
		c72.9529,0,132.3051-59.3521,132.3051-132.3051c0-5.2565,4.2609-9.5183,9.5183-9.5183c5.2574,0,9.5183,4.2619,9.5183,9.5183
		C407.3417,339.451,339.451,407.3417,256,407.3417z"/>
	<path class="st1" d="M114.1766,265.5183c-5.2565,0-9.5183-4.2619-9.5183-9.5183c0-83.4501,67.8917-151.3417,151.3417-151.3417
		c5.2565,0,9.5183,4.2619,9.5183,9.5183s-4.2619,9.5183-9.5183,9.5183c-72.9529,0-132.3051,59.3521-132.3051,132.3051
		C123.695,261.2565,119.4331,265.5183,114.1766,265.5183z"/>
</g>
</svg>
