<?xml version="1.0" encoding="utf-8"?>
<!-- Generator: Adobe Illustrator 22.1.0, SVG Export Plug-In . SVG Version: 6.00 Build 0)  -->
<svg version="1.1" xmlns="http://www.w3.org/2000/svg" xmlns:xlink="http://www.w3.org/1999/xlink" x="0px" y="0px"
	 viewBox="0 0 512 512" style="enable-background:new 0 0 512 512;" xml:space="preserve">
<style type="text/css">
	.st0{display:none;}
	.st1{fill:none;stroke:#990000;stroke-miterlimit:10;}
	.st2{fill:none;stroke:#000000;stroke-width:10;stroke-linecap:round;stroke-miterlimit:10;}
	.st3{fill:none;stroke:#000000;stroke-width:6;stroke-linecap:round;stroke-miterlimit:10;}
	.st4{fill:#FFFFFF;}
</style>
<g id="Calque_2" class="st0">
	
		<image style="display:inline;overflow:visible;" width="950" height="853" xlink:href="63DC25C5.jpg"  transform="matrix(0.5389 0 0 0.5389 2 52)">
	</image>
	<line class="st1" x1="-27.5" y1="256" x2="559.5" y2="256"/>
</g>
<g id="Calque_1">
	<g>
		<path class="st4" d="M226,453.4c-114.4,0-207.5-93.1-207.5-207.5S111.5,38.3,226,38.3s207.5,93.1,207.5,207.5
			S340.4,453.4,226,453.4z M226,50C118,50,30.1,137.9,30.1,245.9S118,441.7,226,441.7s195.9-87.9,195.9-195.9S334,50,226,50z"/>
		<path class="st4" d="M226,425.3c-98.9,0-179.4-80.5-179.4-179.4S127,66.5,226,66.5s179.4,80.5,179.4,179.4S324.9,425.3,226,425.3z
			 M226,78.1c-92.5,0-167.8,75.3-167.8,167.8S133.5,413.6,226,413.6s167.8-75.3,167.8-167.8S318.5,78.1,226,78.1z"/>
	</g>
	<path class="st4" d="M404.6,156c-3,0-5.5-2.3-5.8-5.3c-4-49.6-35.6-118.6-42.1-132.5l-15.4-3.5v59.9c0,3.2-2.6,5.8-5.8,5.8
		c-3.2,0-5.8-2.6-5.8-5.8V0l35.1,8.1l1.2,2.5c1.6,3.3,39.8,81.9,44.4,139.2c0.3,3.2-2.1,6-5.3,6.3C404.9,156,404.8,156,404.6,156z"
		/>
	<path class="st4" d="M47.3,156.7c-0.2,0-0.3,0-0.5,0c-3.2-0.3-5.6-3.1-5.3-6.3C46.2,93.1,84.3,14.5,85.9,11.2l1.2-2.5l35.1-8.1
		v74.5c0,3.2-2.6,5.8-5.8,5.8s-5.8-2.6-5.8-5.8V15.3l-15.4,3.5c-6.5,13.9-38.1,82.9-42.1,132.5C52.8,154.4,50.3,156.7,47.3,156.7z"
		/>
	<path class="st4" d="M122.2,512.9l-37.3-8l-1.1-3c-2.3-6.1-55.4-148.8-57.9-201.5c-0.2-3.2,2.3-5.9,5.5-6.1
		c3.2-0.2,5.9,2.3,6.1,5.5c2.3,46.8,48.3,173.9,56.1,195l17,3.6v-83.3c0-3.2,2.6-5.8,5.8-5.8s5.8,2.6,5.8,5.8V512.9z"/>
	<path class="st4" d="M329.7,512.8v-97.6c0-3.2,2.6-5.8,5.8-5.8c3.2,0,5.8,2.6,5.8,5.8v83.4l19-3.8c5.6-15.4,30.3-83.6,33.7-93.7
		l0.2-0.7c4-12.1,14.7-44.2,61.5-85.2c0.5-0.8,3.9-6.9,3.9-28.7v-5.3l5.2-0.5c0.1,0,14.9-1.8,16.2-10.5c1.8-12.9,0-48.9-0.1-49.3
		l0-0.5l0.1-0.5c0,0,0.2-3.1-1.9-5.4c-2.1-2.3-6.2-3.5-11.7-3.5H461l0.6-6.4c0.8-7.9,0.1-18.3-2.2-20.5
		c-5.3-5.3-15.3-15.3-60.6-47.1c-2.6-1.8-3.3-5.5-1.4-8.1c1.8-2.6,5.5-3.3,8.1-1.4c46.1,32.4,56.5,42.8,62.1,48.4
		c5.4,5.4,6.1,16.5,5.9,23.9c6.2,0.9,11,3.3,14.4,7.1c4.8,5.4,4.8,11.8,4.7,13.9c0.2,4.3,1.8,37.8-0.1,51.2
		c-1.7,11.8-12.6,17.5-21.3,19.6c-0.5,22.8-4.9,30.2-7.9,32.6c-44.4,38.9-54.3,68.8-58.1,80.1l-0.2,0.7c-3.9,11.6-33.7,93.6-35,97.1
		L369,505L329.7,512.8z"/>
	<path class="st4" d="M465.5,292.4c-1.6,0-3.1-0.6-4.3-1.9l-22.9-24.9v-54.5l24.7-11.2c2.9-1.3,6.4,0,7.7,2.9c1.3,2.9,0,6.4-2.9,7.7
		l-17.9,8.1v42.5l19.8,21.6c2.2,2.4,2,6-0.4,8.2C468.3,291.9,466.9,292.4,465.5,292.4z"/>
</g>
</svg>
