<?xml version="1.0" encoding="utf-8"?>
<!-- Generator: Adobe Illustrator 22.1.0, SVG Export Plug-In . SVG Version: 6.00 Build 0)  -->
<svg version="1.1" xmlns="http://www.w3.org/2000/svg" xmlns:xlink="http://www.w3.org/1999/xlink" x="0px" y="0px"
	 viewBox="0 0 512 512" style="enable-background:new 0 0 512 512;" xml:space="preserve">
<style type="text/css">
	.st0{fill:none;stroke:#000000;stroke-width:10;stroke-linecap:round;stroke-miterlimit:10;}
	.st1{fill:none;stroke:#000000;stroke-width:6;stroke-linecap:round;stroke-miterlimit:10;}
	.st2{fill:#FFFFFF;}
</style>
<g id="Calque_2">
</g>
<g id="Calque_1">
	<g>
		<path class="st2" d="M256,460c-112.5,0-204-91.5-204-204S143.5,52,256,52s204,91.5,204,204S368.5,460,256,460z M256,63.4
			C149.8,63.4,63.4,149.8,63.4,256S149.8,448.6,256,448.6S448.6,362.2,448.6,256S362.2,63.4,256,63.4z"/>
		<path class="st2" d="M256,432.4c-97.2,0-176.4-79.1-176.4-176.4S158.8,79.6,256,79.6S432.4,158.8,432.4,256S353.2,432.4,256,432.4
			z M256,91.1c-90.9,0-164.9,74-164.9,164.9s74,164.9,164.9,164.9s164.9-74,164.9-164.9S346.9,91.1,256,91.1z"/>
		<path class="st2" d="M256,404.7c-82,0-148.7-66.7-148.7-148.7v-5.7h114.9c2.7-16.2,16.9-28.6,33.8-28.6s31.1,12.4,33.8,28.6h114.9
			v5.7C404.7,338,338,404.7,256,404.7z M118.8,261.7c3,73,63.4,131.6,137.2,131.6s134.1-58.5,137.2-131.6H278.9V256
			c0-12.6-10.3-22.9-22.9-22.9c-12.6,0-22.9,10.3-22.9,22.9v5.7H118.8z"/>
		<circle class="st2" cx="256" cy="256" r="5.7"/>
	</g>
</g>
</svg>
