<?xml version="1.0" encoding="utf-8"?>
<!-- Generator: Adobe Illustrator 22.1.0, SVG Export Plug-In . SVG Version: 6.00 Build 0)  -->
<svg version="1.1" xmlns="http://www.w3.org/2000/svg" xmlns:xlink="http://www.w3.org/1999/xlink" x="0px" y="0px"
	 viewBox="0 0 512 512" style="enable-background:new 0 0 512 512;" xml:space="preserve">
<style type="text/css">
	.st0{fill:none;stroke:#000000;stroke-width:10;stroke-linecap:round;stroke-miterlimit:10;}
	.st1{fill:none;stroke:#000000;stroke-width:6;stroke-linecap:round;stroke-miterlimit:10;}
	.st2{fill:#FFFFFF;}
</style>
<g id="Calque_2">
</g>
<g id="Calque_1">
	<g>
		<path class="st2" d="M256.5,459C144.3,459,53,367.7,53,255.5S144.3,52,256.5,52S460,143.3,460,255.5S368.7,459,256.5,459z
			 M256.5,63.4c-105.9,0-192.1,86.2-192.1,192.1s86.2,192.1,192.1,192.1s192.1-86.2,192.1-192.1S362.4,63.4,256.5,63.4z"/>
		<path class="st2" d="M256.5,431.4c-97,0-175.9-78.9-175.9-175.9S159.5,79.6,256.5,79.6s175.9,78.9,175.9,175.9
			S353.5,431.4,256.5,431.4z M256.5,91C165.8,91,92,164.8,92,255.5S165.8,420,256.5,420S421,346.2,421,255.5S347.2,91,256.5,91z"/>
		<path class="st2" d="M333.5,304H181.4c-3.2,0-5.7-2.6-5.7-5.7s2.6-5.7,5.7-5.7h152.1c3.2,0,5.7,2.6,5.7,5.7S336.7,304,333.5,304z"
			/>
		<path class="st2" d="M333.5,189.9H181.4c-3.2,0-5.7-2.6-5.7-5.7c0-3.2,2.6-5.7,5.7-5.7h152.1c3.2,0,5.7,2.6,5.7,5.7
			C339.2,187.3,336.7,189.9,333.5,189.9z"/>
		<path class="st2" d="M333.5,218.4H181.4c-3.2,0-5.7-2.6-5.7-5.7c0-3.2,2.6-5.7,5.7-5.7h152.1c3.2,0,5.7,2.6,5.7,5.7
			C339.2,215.9,336.7,218.4,333.5,218.4z"/>
		<path class="st2" d="M333.5,246.9H181.4c-3.2,0-5.7-2.6-5.7-5.7c0-3.2,2.6-5.7,5.7-5.7h152.1c3.2,0,5.7,2.6,5.7,5.7
			C339.2,244.4,336.7,246.9,333.5,246.9z"/>
		<path class="st2" d="M333.5,275.5H181.4c-3.2,0-5.7-2.6-5.7-5.7s2.6-5.7,5.7-5.7h152.1c3.2,0,5.7,2.6,5.7,5.7
			S336.7,275.5,333.5,275.5z"/>
		<path class="st2" d="M333.5,332.5H181.4c-3.2,0-5.7-2.6-5.7-5.7s2.6-5.7,5.7-5.7h152.1c3.2,0,5.7,2.6,5.7,5.7
			S336.7,332.5,333.5,332.5z"/>
	</g>
</g>
</svg>
