<?xml version="1.0" encoding="utf-8"?>
<!-- Generator: Adobe Illustrator 22.1.0, SVG Export Plug-In . SVG Version: 6.00 Build 0)  -->
<svg version="1.1" xmlns="http://www.w3.org/2000/svg" xmlns:xlink="http://www.w3.org/1999/xlink" x="0px" y="0px"
	 viewBox="0 0 512 512" style="enable-background:new 0 0 512 512;" xml:space="preserve">
<style type="text/css">
	.st0{fill:none;stroke:#000000;stroke-width:10;stroke-linecap:round;stroke-miterlimit:10;}
	.st1{fill:#FFFFFF;}
</style>
<g id="Calque_2">
</g>
<g id="Calque_1">
	<g>
		<path class="st1" d="M256,464c-114.692,0-208-93.3089-208-208c0-114.692,93.308-208,208-208c114.6911,0,208,93.308,208,208
			C464,370.6911,370.6911,464,256,464z M256,67.0826C151.8304,67.0826,67.0826,151.8304,67.0826,256S151.8304,444.9174,256,444.9174
			S444.9174,360.1696,444.9174,256S360.1696,67.0826,256,67.0826z"/>
		<path class="st1" d="M256,436.3303c-99.4343,0-180.3303-80.8959-180.3303-180.3303S156.5657,75.6697,256,75.6697
			S436.3303,156.5657,436.3303,256S355.4344,436.3303,256,436.3303z M256,94.7523c-88.9119,0-161.2477,72.3358-161.2477,161.2477
			c0,88.9128,72.3358,161.2477,161.2477,161.2477c88.9128,0,161.2477-72.3349,161.2477-161.2477
			C417.2477,167.0881,344.9128,94.7523,256,94.7523z"/>
		<path class="st1" d="M333.2844,308.4771H180.6239c-5.2691,0-9.5413-4.2712-9.5413-9.5413c0-5.2701,4.2722-9.5413,9.5413-9.5413
			h152.6605c5.2701,0,9.5413,4.2712,9.5413,9.5413C342.8257,304.2058,338.5545,308.4771,333.2844,308.4771z"/>
		<path class="st1" d="M333.2844,193.9817H180.6239c-5.2691,0-9.5413-4.2722-9.5413-9.5413s4.2722-9.5413,9.5413-9.5413h152.6605
			c5.2701,0,9.5413,4.2722,9.5413,9.5413S338.5545,193.9817,333.2844,193.9817z"/>
		<path class="st1" d="M333.2844,222.6055H180.6239c-5.2691,0-9.5413-4.2721-9.5413-9.5413s4.2722-9.5413,9.5413-9.5413h152.6605
			c5.2701,0,9.5413,4.2722,9.5413,9.5413S338.5545,222.6055,333.2844,222.6055z"/>
		<path class="st1" d="M333.2844,251.2294H180.6239c-5.2691,0-9.5413-4.2721-9.5413-9.5413c0-5.2691,4.2722-9.5413,9.5413-9.5413
			h152.6605c5.2701,0,9.5413,4.2721,9.5413,9.5413C342.8257,246.9572,338.5545,251.2294,333.2844,251.2294z"/>
		<path class="st1" d="M333.2844,279.8532H180.6239c-5.2691,0-9.5413-4.2712-9.5413-9.5413c0-5.2701,4.2722-9.5413,9.5413-9.5413
			h152.6605c5.2701,0,9.5413,4.2712,9.5413,9.5413C342.8257,275.582,338.5545,279.8532,333.2844,279.8532z"/>
		<path class="st1" d="M333.2844,337.1009H180.6239c-5.2691,0-9.5413-4.2712-9.5413-9.5413s4.2722-9.5413,9.5413-9.5413h152.6605
			c5.2701,0,9.5413,4.2712,9.5413,9.5413S338.5545,337.1009,333.2844,337.1009z"/>
	</g>
</g>
</svg>
