<?xml version="1.0" encoding="utf-8"?>
<!-- Generator: Adobe Illustrator 22.1.0, SVG Export Plug-In . SVG Version: 6.00 Build 0)  -->
<svg version="1.1" id="Calque_1" xmlns="http://www.w3.org/2000/svg" xmlns:xlink="http://www.w3.org/1999/xlink" x="0px" y="0px"
	 viewBox="0 0 512 512" style="enable-background:new 0 0 512 512;" xml:space="preserve">
<style type="text/css">
	.st0{fill:#73BF44;}
</style>
<path class="st0" d="M57.2042,165.2086c-9.6637,1.7885-18.4031,0.4108-25.9896-5.6712c-5.6788-4.5527-9.1385-10.454-10.5597-17.6281
	c-2.6687-13.4705,4.8554-27.5067,17.6561-32.7061c13.3298-5.4142,28.5107-0.6702,36.1818,11.3326
	c2.2747,3.5591,4.0666,7.3917,4.1833,11.6451c0.1094,3.9866-0.0244,8.0409-0.6499,11.9701
	c-0.6642,4.1723-2.7532,7.9321-5.6472,11.0052c-2.731,2.9001-5.8627,5.423-8.8475,8.1386
	c1.0138,4.2847,96.3407,207.8883,98.5356,210.4186c0.1356-0.0508,0.295-0.073,0.4001-0.1605
	c0.1088-0.0908,0.2205-0.2388,0.2347-0.3721c0.0626-0.5858,0.1541-1.179,0.1216-1.7632
	c-5.2239-93.7244-10.4577-187.4482-15.71-281.5124c-1.7286-0.3242-3.1377-0.6757-4.5683-0.8434
	c-15.7221-1.8421-26.7942-15.4123-25.7826-31.6354c0.919-14.737,13.8882-26.8504,28.8949-26.9881
	c14.1476-0.1299,26.34,9.3443,29.3666,22.8196c3.1152,13.8697-3.7832,27.5788-16.8837,33.5652
	c-1.3273,0.6066-2.6389,1.2476-4.3258,2.047c21.8003,92.3977,43.5565,184.6089,65.3128,276.8201
	c0.3848-0.0022,0.7696-0.0044,1.1544-0.0066c0.3106-1.5021,0.7561-2.9905,0.9108-4.5085
	c1.6155-15.8554,3.1405-31.7202,4.7774-47.5733c1.9277-18.6685,3.9744-37.3247,5.9078-55.9926
	c1.6418-15.8531,3.1672-31.7183,4.7975-47.5726c1.3255-12.8904,2.7598-25.7695,4.0911-38.6593
	c1.3467-13.0386,2.6014-26.0867,3.9424-39.126c1.3104-12.7421,2.685-25.4775,4.02-38.2171
	c1.0247-9.7779,2.0499-19.5559,3.0262-29.3387c0.1444-1.4463,0.0201-2.9194,0.0201-4.7c-9.8251-2.1055-17.495-7.0266-22.204-15.9116
	c-3.3612-6.342-3.9283-13.1568-2.5598-20.0185c2.6739-13.4067,15.3425-23.2846,29.1603-23.1079
	c14.2505,0.1822,26.1216,10.2805,28.7233,24.7102c1.4738,8.1735-0.4637,15.7101-5.3665,22.4024
	c-4.794,6.5438-11.4695,10.2125-19.9066,11.8802c10.3341,101.6279,20.9778,202.8983,31.3179,304.1992
	c0.0651,0.6387,0.5758,1.232,1.3572,1.8563c22.2694-92.3113,44.0388-184.6468,65.836-277.1757
	c-1.6823-0.8193-2.9821-1.4762-4.3014-2.0911c-13.3452-6.2201-20.0532-20.466-16.2688-34.5653
	c3.7432-13.9459,16.9232-23.0183,31.4814-21.67c14.6241,1.3544,25.9152,13.8909,26.4385,28.5074
	c0.5529,15.4346-11.4772,28.783-26.052,30.0691c-1.3142,0.116-2.6124,0.4119-4.3691,0.6976
	c-0.3217,3.9466-0.7128,7.7606-0.9309,11.5845c-1.1628,20.3835-2.3026,40.7684-3.4098,61.155
	c-0.7354,13.542-1.3553,27.0903-2.1124,40.631c-1.0236,18.3015-2.1472,36.5974-3.1932,54.8977
	c-0.7313,12.7962-1.3938,25.5964-2.1068,38.3937c-0.7628,13.6891-1.5503,27.3767-2.3239,41.0651
	c-0.639,11.3085-1.2831,22.6168-1.8885,33.927c-0.0427,0.796,0.2151,1.608,0.3726,2.6808c0.7333-0.4663,1.2537-0.6045,1.4001-0.9177
	c32.6292-69.7318,65.2324-139.476,97.9791-209.5253c-1.6039-1.1077-2.9476-1.9759-4.2277-2.9293
	c-9.9812-7.4334-14.4867-17.2566-12.1909-29.6193c2.2941-12.3541,9.906-20.3521,22.0059-23.2043
	c11.8334-2.7894,22.3242,0.5092,29.9897,10.2209c7.4842,9.4818,8.7589,20.2055,3.4879,31.0889
	c-5.2522,10.8449-14.2873,16.446-26.4598,16.6842c-2.0737,0.0406-4.1486,0.0057-6.8328,0.0057
	c-0.4194,1.0939-1.0855,2.5304-1.529,4.0326c-9.9897,33.8415-19.9629,67.688-29.9239,101.5381
	c-17.9464,60.9867-35.8915,121.9737-53.8148,182.967c-3.353,11.4105-10.137,20.4767-19.0376,28.0884
	c-11.7454,10.0445-25.3545,16.694-39.9802,21.2922c-21.5487,6.7747-43.6156,9.2232-66.1802,7.7545
	c-17.0676-1.1109-33.6698-4.2279-49.6884-10.2464c-11.086-4.1652-21.472-9.641-30.7421-17.0836
	c-10.7531-8.6333-18.1064-19.3441-22.0381-32.7966c-27.3565-93.6024-54.9669-187.1306-82.5114-280.6779
	C58.6402,168.9709,57.9171,167.2123,57.2042,165.2086z M255.1721,490.4164c3.8725,0,7.7457,0.0497,11.6172-0.009
	c13.7451-0.2084,27.3376-1.8554,40.7893-4.6132c9.7958-2.0084,19.4732-4.5571,28.3355-9.3172
	c3.6292-1.9493,7.1836-4.3548,10.1104-7.227c5.5948-5.4904,5.507-11.7596-0.1418-17.2649
	c-2.7323-2.6629-5.9692-5.0416-9.3864-6.7133c-5.1925-2.5402-10.6314-4.7095-16.1593-6.4056
	c-14.4485-4.433-29.3358-6.4329-44.3931-7.4662c-25.2645-1.7339-50.3641-0.7618-75.108,4.8401
	c-7.8002,1.7659-15.4099,4.5341-22.9231,7.3361c-3.5667,1.3301-6.9317,3.5147-9.9897,5.8368
	c-9.2701,7.0387-9.3031,15.3338-0.1846,22.4488c2.4485,1.9106,5.1377,3.6404,7.9591,4.9168
	c4.6005,2.0813,9.3098,4.0173,14.1319,5.4973C211.1143,488.8081,233.0634,490.4763,255.1721,490.4164z"/>
</svg>
