<?xml version="1.0" encoding="utf-8"?>
<!-- Generator: Adobe Illustrator 22.1.0, SVG Export Plug-In . SVG Version: 6.00 Build 0)  -->
<svg version="1.1" id="Calque_1" xmlns="http://www.w3.org/2000/svg" xmlns:xlink="http://www.w3.org/1999/xlink" x="0px" y="0px"
	 viewBox="0 0 512 512" style="enable-background:new 0 0 512 512;" xml:space="preserve">
<style type="text/css">
	.st0{fill:none;stroke:#000000;stroke-width:10;stroke-linecap:round;stroke-miterlimit:10;}
	.st1{fill:none;stroke:#000000;stroke-width:6;stroke-linecap:round;stroke-miterlimit:10;}
	.st2{fill:#FFFFFF;}
</style>
<path class="st2" d="M256.5,458C144.8,458,54,367.2,54,255.5S144.8,53,256.5,53S459,143.8,459,255.5S368.2,458,256.5,458z
	 M256.5,64.4c-105.4,0-191.1,85.7-191.1,191.1s85.7,191.1,191.1,191.1s191.1-85.7,191.1-191.1S361.9,64.4,256.5,64.4z"/>
<path class="st2" d="M256.5,430.6C160,430.6,81.4,352,81.4,255.5S160,80.4,256.5,80.4S431.6,159,431.6,255.5S353,430.6,256.5,430.6z
	 M256.5,91.8c-90.3,0-163.7,73.4-163.7,163.7s73.4,163.7,163.7,163.7s163.7-73.4,163.7-163.7S346.8,91.8,256.5,91.8z"/>
<path class="st2" d="M256.5,402.2c-3.1,0-5.7-2.5-5.7-5.7c0-3.1,2.5-5.7,5.7-5.7c74.6,0,135.3-60.7,135.3-135.3
	c0-3.1,2.5-5.7,5.7-5.7c3.1,0,5.7,2.5,5.7,5.7C403.2,336.4,337.4,402.2,256.5,402.2z"/>
<path class="st2" d="M115.5,261.2c-3.1,0-5.7-2.5-5.7-5.7c0-80.9,65.8-146.7,146.7-146.7c3.1,0,5.7,2.5,5.7,5.7
	c0,3.1-2.5,5.7-5.7,5.7c-74.6,0-135.3,60.7-135.3,135.3C121.2,258.6,118.6,261.2,115.5,261.2z"/>
</svg>
