<?xml version="1.0" encoding="utf-8"?>
<!-- Generator: Adobe Illustrator 22.1.0, SVG Export Plug-In . SVG Version: 6.00 Build 0)  -->
<svg version="1.1" xmlns="http://www.w3.org/2000/svg" xmlns:xlink="http://www.w3.org/1999/xlink" x="0px" y="0px"
	 viewBox="0 0 512 512" style="enable-background:new 0 0 512 512;" xml:space="preserve">
<style type="text/css">
	.st0{fill:none;stroke:#000000;stroke-width:10;stroke-linecap:round;stroke-miterlimit:10;}
	.st1{fill:#FFFFFF;}
</style>
<g id="Calque_2">
</g>
<g id="Calque_1">
	<g>
		<path class="st1" d="M256,464c-114.692,0-208-93.3089-208-208c0-114.692,93.308-208,208-208c114.6911,0,208,93.308,208,208
			C464,370.6911,370.6911,464,256,464z M256,67.0826C151.8304,67.0826,67.0826,151.8304,67.0826,256S151.8304,444.9174,256,444.9174
			S444.9174,360.1696,444.9174,256S360.1696,67.0826,256,67.0826z"/>
		<path class="st1" d="M256,436.3303c-99.4343,0-180.3303-80.8959-180.3303-180.3303S156.5657,75.6697,256,75.6697
			S436.3303,156.5657,436.3303,256S355.4344,436.3303,256,436.3303z M256,94.7523c-88.9119,0-161.2477,72.3358-161.2477,161.2477
			c0,88.9128,72.3358,161.2477,161.2477,161.2477c88.9128,0,161.2477-72.3349,161.2477-161.2477
			C417.2477,167.0881,344.9128,94.7523,256,94.7523z"/>
		<path class="st1" d="M256,408.6606c-84.1776,0-152.6606-68.4829-152.6606-152.6606v-9.5413h115.703
			c4.247-16.4429,19.2065-28.6238,36.9576-28.6238c17.7502,0,32.7106,12.181,36.9576,28.6238h115.703V256
			C408.6606,340.1776,340.1776,408.6606,256,408.6606z M122.7593,265.5413C127.6707,334.7585,185.5548,389.578,256,389.578
			s128.3303-54.8195,133.2407-124.0367H275.0826V256c0-10.5224-8.5611-19.0826-19.0826-19.0826
			c-10.5224,0-19.0826,8.5601-19.0826,19.0826v9.5413H122.7593z"/>
		<circle class="st1" cx="256" cy="256" r="9.5413"/>
	</g>
</g>
</svg>
