<?xml version="1.0" encoding="utf-8"?>
<!-- Generator: Adobe Illustrator 22.1.0, SVG Export Plug-In . SVG Version: 6.00 Build 0)  -->
<svg version="1.1" id="Layer_1" xmlns="http://www.w3.org/2000/svg" xmlns:xlink="http://www.w3.org/1999/xlink" x="0px" y="0px"
	 viewBox="0 0 512 512" style="enable-background:new 0 0 512 512;" xml:space="preserve">
<style type="text/css">
	.st0{fill:#0B1428;}
</style>
<g>
	<g>
		<path class="st0" d="M503.8,236.1L318.9,51.2c-5.3-5.3-12.3-8.2-19.8-8.2c-7.5,0-14.5,2.9-19.8,8.2L262.5,68
			c-5.3,5.3-8.2,12.3-8.2,19.8c0,7.5,2.9,14.8,8.2,20L370.4,216H27.7C12.2,216,0,228.1,0,243.5v23.7C0,282.7,12.2,296,27.7,296
			h343.9L262.5,404.7c-5.3,5.3-8.2,12.1-8.2,19.6c0,7.5,2.9,14.4,8.2,19.7l16.8,16.7c5.3,5.3,12.3,8.2,19.8,8.2
			c7.5,0,14.5-2.9,19.8-8.2l184.9-184.9c5.3-5.3,8.2-12.4,8.2-19.9C512,248.5,509.1,241.4,503.8,236.1z"/>
	</g>
</g>
</svg>
